<?xml version="1.0" standalone="no"?>
<!DOCTYPE svg PUBLIC "-//W3C//DTD SVG 20010904//EN"
 "http://www.w3.org/TR/2001/REC-SVG-20010904/DTD/svg10.dtd">
<svg version="1.0" xmlns="http://www.w3.org/2000/svg"
 width="1522.000000pt" height="1522.000000pt" viewBox="0 0 1522.000000 1522.000000"
 preserveAspectRatio="xMidYMid meet">
<metadata>
Created by potrace 1.14, written by Peter Selinger 2001-2017
</metadata>
<g transform="translate(0.000000,1522.000000) scale(0.100000,-0.100000)"
fill="#000000" stroke="none">
<path d="M7448 12084 c-212 -24 -363 -76 -491 -168 -91 -65 -204 -188 -276
-298 l-64 -98 -251 0 c-446 0 -853 -43 -1001 -105 -59 -24 -65 -37 -65 -143 1
-271 157 -981 296 -1347 30 -79 68 -153 106 -207 10 -13 6 -24 -23 -60 -54
-66 -136 -191 -171 -258 -38 -73 -91 -228 -109 -321 -23 -119 -39 -409 -39
-707 l0 -223 -22 6 c-13 4 -27 11 -32 16 -18 17 -92 10 -118 -11 -66 -51 -96
-226 -64 -375 l15 -70 -5 80 c-3 44 -7 85 -9 91 -3 11 14 116 20 123 2 2 17
-8 33 -21 27 -23 28 -27 16 -49 -20 -35 -17 -173 6 -308 11 -64 24 -175 29
-247 23 -304 78 -439 211 -521 35 -22 36 -24 48 -115 6 -50 9 -94 6 -97 -2 -3
-27 17 -55 45 -53 51 -118 167 -157 279 -24 66 -68 291 -103 517 -12 81 -25
146 -27 143 -15 -15 32 -442 65 -585 30 -134 135 -308 226 -377 l64 -48 28
-110 c34 -133 81 -278 136 -422 22 -60 54 -144 69 -188 27 -77 96 -247 125
-309 8 -17 21 -49 29 -71 8 -22 52 -126 99 -231 l84 -190 8 -120 c4 -65 8
-220 7 -344 0 -180 1 -213 9 -165 6 33 9 171 6 308 -2 136 0 247 4 247 4 0 30
-37 58 -82 57 -94 227 -322 316 -423 263 -299 335 -368 466 -445 176 -105 332
-163 524 -197 159 -27 360 -4 600 70 393 122 557 272 871 797 115 191 140 228
149 219 3 -4 1 -58 -4 -120 -6 -63 -13 -285 -15 -494 -3 -209 -7 -398 -10
-420 -14 -121 -1 -523 20 -628 4 -21 2 -27 -11 -27 -17 0 -160 53 -293 109
-40 17 -110 39 -157 50 -88 21 -342 47 -376 38 -27 -7 -24 3 18 75 65 112 135
203 250 324 166 176 233 274 263 383 17 63 6 60 -18 -4 -26 -66 -59 -118 -161
-244 -42 -52 -94 -117 -115 -145 -21 -28 -42 -53 -45 -56 -18 -14 -104 -129
-171 -227 l-75 -111 -70 -7 c-138 -12 -331 -45 -580 -101 -513 -115 -597 -128
-825 -128 -231 0 -409 28 -657 104 -84 25 -82 21 -53 136 39 161 77 489 84
744 5 171 5 171 -34 -195 -23 -215 -77 -594 -88 -626 -8 -20 -11 -19 -93 24
-166 87 -312 205 -350 284 -31 64 -31 146 -1 195 43 70 142 103 357 121 22 2
-5 4 -60 5 -228 4 -348 -70 -348 -213 0 -130 74 -228 261 -349 40 -26 106 -63
148 -83 75 -35 76 -37 69 -67 -3 -17 -8 -47 -11 -66 -3 -29 0 -25 18 22 13 32
28 58 34 58 6 0 56 -11 109 -25 253 -64 473 -90 700 -82 189 6 349 30 704 102
317 65 641 115 641 99 0 -3 -25 -46 -56 -96 -114 -185 -197 -378 -210 -488 -5
-44 -5 -44 19 20 44 118 180 378 287 546 19 30 81 37 231 24 161 -14 252 -36
446 -108 88 -33 173 -63 190 -66 30 -7 31 -9 44 -99 l14 -92 3 86 3 87 59 4
c82 6 110 32 110 102 0 58 -30 119 -70 145 -21 13 -20 11 6 -16 50 -51 66
-135 35 -183 -14 -20 -151 -28 -151 -9 0 8 -5 133 -10 278 l-11 264 28 29 c58
62 176 149 251 185 73 36 82 38 177 38 113 0 158 -15 277 -96 171 -116 341
-364 342 -500 0 -106 -124 -232 -434 -437 -69 -45 -126 -79 -128 -74 -1 5 17
55 40 113 39 96 42 111 43 199 0 150 -39 208 -216 313 -63 38 -125 76 -139 85
-13 9 -21 12 -17 5 4 -7 58 -43 120 -82 136 -84 190 -136 218 -211 30 -78 21
-151 -32 -282 -100 -247 -107 -288 -64 -375 25 -50 69 -92 151 -145 64 -41
140 -126 173 -192 73 -150 56 -285 -47 -376 -136 -120 -430 -218 -746 -251
-168 -17 -541 -6 -716 20 -368 56 -541 101 -1000 266 -99 36 -112 38 -255 42
-89 3 -303 -4 -527 -16 -208 -12 -451 -21 -540 -21 -526 0 -813 91 -910 287
-30 62 -33 75 -33 163 1 105 13 151 86 306 68 147 90 219 96 324 7 125 -10
193 -95 390 l-67 155 0 101 c0 94 2 104 34 168 65 127 247 266 403 307 62 17
159 29 343 43 28 2 -22 2 -110 1 -191 -4 -280 -24 -394 -87 -154 -84 -224
-150 -282 -266 -31 -62 -34 -74 -33 -162 0 -64 5 -108 16 -135 9 -22 41 -101
72 -175 67 -161 80 -225 73 -345 -4 -74 -12 -108 -47 -195 -78 -198 -68 -187
-195 -226 -451 -136 -956 -357 -1265 -555 -358 -228 -646 -474 -790 -674 -226
-315 -442 -856 -555 -1393 -18 -89 -18 -92 -1 -92 8 0 19 28 30 83 139 660
413 1289 675 1547 137 135 351 311 526 432 337 234 800 452 1308 617 87 28
162 51 166 51 4 0 -3 -37 -16 -81 -81 -281 72 -493 412 -572 227 -53 544 -68
928 -43 360 23 706 31 808 18 60 -8 117 -24 196 -56 61 -25 186 -68 279 -96
265 -80 391 -108 714 -161 99 -16 724 -23 752 -8 15 8 22 8 28 -1 5 -8 9 -8
13 3 3 9 30 20 64 27 32 6 95 21 141 32 46 11 85 18 88 15 2 -2 9 -52 14 -111
18 -189 69 -369 159 -559 32 -67 66 -143 76 -170 10 -26 20 -46 22 -43 4 4 -9
39 -120 311 -52 125 -92 303 -102 445 -3 52 -8 107 -11 122 -4 22 -1 28 28 37
66 22 186 78 203 94 9 10 26 22 37 28 64 34 122 119 137 201 21 116 -29 270
-119 365 -16 18 -30 36 -30 41 0 6 42 18 94 28 89 16 98 16 163 1 104 -25 209
-83 278 -152 33 -33 97 -116 142 -185 44 -69 104 -159 132 -200 29 -41 81
-120 117 -175 36 -55 71 -104 76 -110 16 -15 5 4 -111 180 -57 88 -136 212
-174 275 -126 206 -201 287 -330 349 -130 64 -215 72 -364 34 l-64 -16 -69 46
c-81 55 -102 82 -67 92 12 4 65 27 118 51 100 46 214 79 321 93 60 8 61 9 17
10 -68 2 -208 -25 -286 -55 -140 -54 -204 -75 -213 -69 -11 7 -12 106 -1 145
5 19 28 36 96 71 50 26 96 52 103 59 26 23 193 50 318 50 264 0 505 -85 628
-221 109 -122 153 -214 227 -484 52 -190 110 -368 116 -361 3 2 -9 48 -25 103
-17 54 -40 144 -52 201 -12 57 -36 150 -54 207 -23 70 -30 106 -22 109 6 2 4
5 -4 6 -8 1 -33 38 -55 83 -70 144 -206 260 -373 321 -144 51 -386 70 -538 41
-43 -8 -79 -13 -80 -12 -2 2 16 16 40 32 141 97 214 168 267 260 41 71 39 116
-12 224 -51 109 -124 205 -244 320 -187 179 -342 230 -506 168 -92 -35 -139
-67 -233 -157 l-81 -79 -3 192 c-2 106 1 280 7 387 6 107 14 285 17 394 l7
200 55 95 c30 53 69 119 87 146 66 102 148 261 214 418 123 290 131 309 131
318 0 5 18 55 41 112 22 56 64 190 93 297 l54 194 52 41 c40 30 67 64 111 140
75 129 93 184 123 369 22 139 51 454 42 463 -2 2 -16 -74 -31 -169 -34 -219
-80 -453 -101 -515 -29 -87 -114 -241 -151 -273 -19 -17 -36 -30 -38 -28 -2 2
1 23 5 48 5 25 9 69 10 98 0 29 3 51 8 48 4 -2 29 11 55 30 95 69 144 222 167
519 5 72 16 166 25 210 8 44 18 123 21 175 6 80 4 101 -11 130 l-18 34 29 23
c19 15 32 19 39 12 5 -5 10 -53 10 -104 0 -52 3 -95 7 -95 14 0 20 135 9 201
-14 73 -55 150 -92 169 -56 30 -167 -16 -216 -89 -23 -34 -28 -32 -36 19 -2
14 -5 -243 -6 -570 -1 -638 -4 -722 -27 -843 -35 -184 -145 -506 -293 -857
-110 -259 -156 -344 -379 -702 -104 -167 -215 -347 -248 -400 -94 -155 -233
-346 -306 -420 -151 -153 -390 -266 -711 -335 -58 -13 -125 -18 -232 -18 -132
1 -163 4 -253 28 -192 51 -354 128 -499 235 -148 111 -491 505 -653 752 -80
122 -88 139 -221 446 -310 720 -455 1129 -489 1384 -17 130 -26 360 -19 510 4
74 10 218 14 320 4 109 12 188 18 192 18 11 24 102 15 230 -5 68 -6 148 -2
178 16 151 108 483 188 680 24 58 78 209 121 335 43 127 97 274 120 328 24 53
41 97 38 97 -11 0 -127 -261 -193 -435 -39 -104 -93 -246 -120 -315 -72 -184
-107 -318 -152 -570 l-13 -75 -6 135 c-10 213 -10 475 1 599 20 226 64 382
165 586 l64 131 73 0 c77 -1 185 29 297 81 112 52 249 101 341 123 82 19 124
22 310 22 326 1 449 -20 1280 -212 300 -70 420 -102 630 -172 244 -80 428
-166 570 -266 96 -68 265 -242 354 -364 43 -60 80 -108 83 -108 2 0 -6 15 -18
33 -252 359 -441 513 -832 676 -238 99 -643 210 -1252 345 -421 93 -501 105
-745 113 -310 9 -374 -3 -700 -133 -284 -112 -340 -121 -413 -64 -111 88 -410
1255 -395 1545 3 58 4 60 43 82 130 73 515 114 1070 114 828 0 1514 -97 2175
-307 1094 -348 2223 -916 2596 -1305 62 -65 81 -93 94 -138 19 -65 -155 -297
-409 -547 -41 -41 -71 -74 -65 -74 12 0 284 276 346 350 71 86 147 203 154
237 10 49 -33 118 -132 213 -120 115 -206 182 -376 293 -581 380 -1348 722
-2220 991 -513 158 -1161 266 -1748 292 -188 8 -205 10 -203 23 4 16 69 105
135 187 96 117 255 231 382 274 171 56 432 83 768 78 125 -2 224 0 220 4 -10
10 -331 28 -469 27 -65 -1 -171 -7 -235 -15z m-1786 -2511 c-84 -161 -140
-363 -163 -593 -13 -129 -2 -980 12 -945 4 12 8 -28 8 -97 1 -73 -3 -119 -10
-123 -7 -5 -9 24 -7 94 2 55 0 97 -4 93 -4 -4 -8 -36 -10 -72 l-3 -65 -19 80
c-10 44 -19 87 -19 95 1 8 -11 31 -26 50 -15 19 -30 43 -34 53 -8 22 19 655
34 787 21 187 54 307 123 450 42 87 114 210 122 210 3 0 1 -8 -4 -17z m-334
-1447 c32 -16 54 -37 71 -66 29 -52 102 -310 88 -310 -3 0 -62 56 -130 124
-109 108 -167 155 -194 157 -21 1 17 81 49 103 31 22 61 20 116 -8z m4733 -26
c17 -10 59 -78 59 -97 0 -4 -21 -16 -46 -27 -28 -12 -60 -37 -87 -69 -23 -27
-66 -76 -94 -108 -29 -33 -53 -63 -53 -69 0 -5 -4 -10 -10 -10 -6 0 -10 44
-10 113 0 110 1 114 33 167 48 81 151 130 208 100z m-4819 -158 c2 -5 29 -27
61 -50 31 -24 57 -47 57 -52 0 -4 29 -37 66 -73 55 -54 64 -69 61 -93 -3 -21
-14 -34 -43 -49 -44 -23 -61 -52 -70 -118 -9 -65 1 -105 46 -180 36 -59 40
-73 39 -129 0 -55 -2 -60 -11 -38 -7 14 -35 77 -64 140 -76 166 -81 207 -49
375 28 146 28 184 1 120 -31 -72 -39 -135 -34 -269 4 -104 10 -143 28 -191 23
-60 79 -168 110 -215 19 -27 39 -250 23 -250 -5 0 -29 19 -54 43 -56 51 -75
100 -118 292 -40 185 -58 298 -66 425 -4 58 -11 139 -16 180 -10 83 -4 140 16
140 7 0 15 -4 17 -8z m4828 -92 c0 -25 -4 -90 -10 -145 -5 -55 -14 -149 -20
-210 -12 -132 -59 -370 -95 -484 -20 -62 -37 -94 -67 -127 -22 -24 -44 -44
-48 -44 -5 0 -6 53 -3 118 5 102 9 122 31 157 32 50 65 125 91 206 17 51 21
88 21 205 0 129 -3 150 -25 210 l-25 67 32 28 c115 100 118 100 118 19z m-130
-211 c30 -165 24 -204 -54 -384 l-56 -130 0 57 c0 48 6 67 37 120 35 59 38 70
41 159 4 95 4 96 -23 117 -15 12 -36 22 -46 22 -15 0 -19 8 -19 39 0 32 5 44
28 59 15 11 34 32 42 46 7 14 16 26 20 26 3 0 17 -59 30 -131z m-4460 -97 c0
-38 -3 -104 -7 -146 l-6 -77 -39 73 c-48 92 -48 117 -1 174 21 24 41 44 45 44
4 0 8 -31 8 -68z m4375 21 c14 -16 30 -43 36 -60 9 -29 7 -42 -22 -103 -17
-39 -35 -70 -39 -70 -3 0 -7 59 -9 130 -1 72 0 130 3 130 3 0 17 -12 31 -27z"/>
<path d="M5460 8022 c6 -13 14 -21 18 -18 3 4 -2 14 -12 24 -18 16 -18 16 -6
-6z"/>
<path d="M8410 12037 c3 -3 55 -17 115 -31 328 -74 744 -257 1040 -457 286
-194 402 -345 470 -614 22 -83 23 -86 24 -45 2 89 -57 255 -132 371 -187 292
-728 601 -1292 739 -119 29 -235 48 -225 37z"/>
<path d="M10664 8988 l-29 -33 33 29 c30 28 37 36 29 36 -2 0 -16 -15 -33 -32z"/>
<path d="M10594 8928 l-29 -33 33 29 c30 28 37 36 29 36 -2 0 -16 -15 -33 -32z"/>
<path d="M9689 8765 c6 -11 20 -31 31 -45 15 -17 18 -19 11 -5 -6 11 -20 31
-31 45 -15 17 -18 19 -11 5z"/>
<path d="M9790 8607 c0 -10 6 -25 14 -33 31 -30 36 -8 6 27 -17 21 -19 22 -20
6z"/>
<path d="M9105 8524 c-44 -8 -197 -52 -340 -99 -143 -46 -293 -94 -332 -107
-40 -12 -71 -23 -69 -25 6 -6 423 107 556 151 74 24 171 52 215 61 73 15 85
15 153 0 115 -26 342 -149 342 -186 0 -5 -72 -8 -167 -7 -160 1 -173 -1 -273
-30 -58 -17 -247 -67 -420 -113 -173 -45 -364 -95 -423 -110 -133 -35 -172
-32 -231 20 -32 28 -37 31 -25 11 50 -77 134 -88 340 -41 143 32 376 92 624
162 288 80 282 79 409 79 67 0 138 3 158 6 33 6 36 9 27 25 -28 54 -241 169
-375 204 -68 17 -65 17 -169 -1z"/>
<path d="M5962 8493 c-34 -19 -103 -66 -210 -143 l-64 -45 49 -7 c26 -3 80 -7
120 -7 81 -1 301 -37 503 -82 74 -17 164 -36 200 -44 130 -28 495 -76 536 -70
23 3 51 15 63 26 30 28 26 33 -8 8 -23 -17 -39 -20 -82 -17 -69 6 -407 68
-609 113 -252 55 -405 77 -575 84 l-160 6 49 35 c27 19 81 59 120 87 39 29 86
56 105 59 38 8 369 -28 476 -52 121 -26 439 -84 460 -83 32 0 -369 98 -490
119 -60 10 -186 22 -280 25 -153 6 -173 5 -203 -12z"/>
<path d="M6968 8353 c7 -3 16 -2 19 1 4 3 -2 6 -13 5 -11 0 -14 -3 -6 -6z"/>
<path d="M8061 8174 c0 -11 3 -14 6 -6 3 7 2 16 -1 19 -3 4 -6 -2 -5 -13z"/>
<path d="M7018 8064 c115 -29 195 -71 263 -137 70 -68 99 -135 109 -250 l9
-92 -4 105 c-4 135 -22 185 -89 255 -82 83 -233 146 -346 144 -25 -1 -9 -7 58
-25z"/>
<path d="M6255 7955 c-38 -7 -90 -21 -115 -31 -58 -23 -135 -68 -100 -59 226
64 337 77 480 56 168 -25 276 -61 358 -120 71 -52 169 -199 192 -288 9 -35 9
-33 5 17 -6 69 -60 182 -112 232 -96 93 -435 210 -598 207 -22 0 -71 -7 -110
-14z"/>
<path d="M8371 7948 c-54 -27 -142 -114 -192 -190 -48 -75 -64 -159 -49 -255
6 -37 13 -69 15 -71 2 -2 6 16 9 40 2 23 9 81 15 128 16 142 63 227 153 278
29 16 78 43 108 60 l55 32 -35 0 c-19 0 -55 -10 -79 -22z"/>
<path d="M8795 7960 c-72 -12 -326 -144 -390 -202 -53 -48 -101 -127 -128
-208 -31 -96 -26 -101 16 -14 36 74 52 96 93 126 58 42 174 106 206 112 13 3
61 14 108 25 104 25 147 26 202 5 64 -24 78 -46 78 -116 0 -113 -49 -154 -174
-146 -110 7 -187 50 -236 130 -13 22 -20 27 -20 15 0 -34 28 -85 64 -113 20
-16 36 -32 36 -36 0 -3 -21 0 -47 8 -56 17 -140 17 -208 -1 l-50 -13 90 -1
c50 -1 115 -8 145 -16 58 -16 210 -19 290 -5 97 16 241 61 280 86 46 30 80 80
79 115 l0 24 -10 -25 c-13 -33 -37 -58 -81 -86 -33 -21 -158 -76 -158 -70 0 2
7 17 16 34 8 17 18 47 21 66 7 42 -12 124 -34 149 -22 23 -6 22 74 -9 57 -21
244 -64 278 -64 26 1 -34 24 -176 70 -150 48 -161 50 -275 51 -187 1 -352 -49
-463 -139 -54 -44 -41 -17 22 47 52 53 200 136 280 157 29 8 88 14 133 14 81
0 337 -39 429 -65 63 -18 68 -13 13 13 -120 56 -394 101 -503 82z"/>
<path d="M6975 7895 c76 -52 166 -152 208 -230 29 -54 21 8 -9 67 -48 94 -128
165 -209 183 -29 7 -28 6 10 -20z"/>
<path d="M6400 7881 c-52 -4 -115 -13 -139 -20 -46 -13 -205 -89 -243 -116
-28 -19 -11 -19 35 0 20 8 38 15 41 15 2 0 18 -23 36 -50 65 -102 149 -153
270 -165 l45 -5 -45 13 c-81 24 -150 67 -223 136 l-71 69 44 20 c77 35 194 79
225 86 17 3 93 0 171 -7 153 -15 209 -33 232 -77 32 -61 -16 -178 -85 -206
-104 -44 -193 -22 -262 65 -45 58 -58 105 -42 152 6 18 9 34 6 37 -6 7 -45
-79 -45 -101 0 -28 37 -93 79 -137 25 -26 34 -43 27 -48 -6 -4 9 -10 34 -14
102 -15 510 -4 492 14 -5 5 -59 12 -119 15 l-110 6 34 55 c38 64 44 128 16
187 -33 69 -162 94 -403 76z"/>
<path d="M7397 7549 c-4 -20 -12 -243 -17 -495 -5 -253 -12 -490 -15 -529 -8
-117 11 -20 33 165 18 148 20 203 14 530 -4 213 -10 350 -15 329z"/>
<path d="M6054 7511 c8 -12 134 -85 171 -99 48 -18 229 -52 308 -58 85 -7 209
13 285 46 29 12 52 25 52 29 0 4 -46 -1 -102 -11 -141 -24 -352 -34 -412 -19
-26 6 -82 28 -124 47 -79 37 -169 74 -178 74 -3 0 -3 -4 0 -9z"/>
<path d="M9080 7380 c-183 -45 -308 -64 -369 -55 -24 4 -80 20 -125 36 -114
42 -137 34 -42 -15 l77 -40 177 0 c154 0 187 3 256 23 89 26 231 89 201 90
-11 0 -90 -17 -175 -39z"/>
<path d="M7005 6447 c-42 -63 -60 -118 -70 -209 -15 -140 59 -280 160 -304 29
-6 28 -5 -12 24 -57 42 -125 178 -131 262 -4 55 -1 66 49 164 29 58 50 109 46
112 -3 3 -22 -19 -42 -49z"/>
<path d="M7221 6120 c25 -10 88 -48 140 -85 52 -37 116 -78 143 -92 94 -48
207 -41 294 18 84 57 220 119 259 119 28 0 34 3 23 10 -8 5 -29 10 -45 10 -42
0 -182 -59 -248 -104 -89 -61 -190 -82 -260 -52 -18 7 -68 44 -112 81 -87 74
-163 115 -210 114 -28 0 -27 -1 16 -19z"/>
<path d="M7495 5723 c-4 -54 -13 -127 -20 -163 -8 -36 -12 -67 -9 -69 7 -8 44
87 54 141 8 37 7 73 -1 121 -6 37 -12 67 -14 67 -1 0 -6 -44 -10 -97z"/>
<path d="M7300 5363 c-94 -17 -275 -69 -325 -93 -62 -31 -123 -76 -114 -84 2
-3 52 17 109 43 204 94 235 103 330 103 52 0 110 -7 146 -18 71 -21 191 -21
254 -1 l45 15 -86 1 c-48 1 -131 10 -184 21 -95 20 -125 22 -175 13z"/>
<path d="M6845 5145 c58 -49 110 -57 333 -46 208 10 520 1 733 -20 142 -14
464 -8 481 9 7 7 26 12 43 12 24 1 27 3 14 10 -11 6 -28 6 -50 -2 -23 -8 -97
-9 -268 -3 -130 5 -348 10 -486 12 -758 7 -736 6 -785 31 l-45 23 30 -26z"/>
<path d="M7120 4791 c14 -27 91 -78 140 -91 56 -16 477 -24 578 -10 83 11 226
52 247 71 12 12 -7 12 -39 -1 -13 -5 -118 -21 -233 -35 -331 -43 -550 -24
-662 57 -38 27 -42 28 -31 9z"/>
<path d="M5560 3123 c0 -17 90 -80 162 -112 126 -57 295 -95 663 -146 237 -33
312 -39 790 -65 466 -25 703 -89 846 -229 77 -74 78 -95 7 -115 -92 -26 -226
-29 -761 -16 -308 6 -575 8 -652 3 -124 -8 -115 -9 195 -16 179 -4 408 -12
510 -17 241 -12 600 -12 673 0 149 24 164 75 54 185 -75 74 -143 114 -262 154
-174 58 -365 80 -860 101 -137 6 -286 15 -330 20 -605 71 -689 86 -846 145
-71 27 -156 77 -176 104 -7 9 -13 11 -13 4z"/>
<path d="M11120 2570 c8 -5 20 -10 25 -10 6 0 3 5 -5 10 -8 5 -19 10 -25 10
-5 0 -3 -5 5 -10z"/>
<path d="M11220 2530 c8 -5 20 -10 25 -10 6 0 3 5 -5 10 -8 5 -19 10 -25 10
-5 0 -3 -5 5 -10z"/>
<path d="M11270 2510 c8 -5 20 -10 25 -10 6 0 3 5 -5 10 -8 5 -19 10 -25 10
-5 0 -3 -5 5 -10z"/>
<path d="M11340 2480 c19 -11 40 -19 45 -19 6 0 -6 8 -25 19 -19 11 -39 19
-45 19 -5 0 6 -8 25 -19z"/>
<path d="M11560 2374 c367 -193 682 -436 833 -642 117 -160 193 -302 284 -527
106 -263 221 -705 279 -1070 9 -60 21 -117 26 -125 22 -35 -29 263 -88 519
-133 573 -311 990 -544 1276 -92 113 -329 305 -532 433 -101 63 -378 212 -394
212 -5 0 56 -35 136 -76z"/>
<path d="M6418 2423 c12 -2 32 -2 45 0 12 2 2 4 -23 4 -25 0 -35 -2 -22 -4z"/>
<path d="M9970 1819 c0 -19 71 -139 83 -139 8 0 -36 85 -70 135 -9 14 -13 15
-13 4z"/>
<path d="M10820 1746 c0 -2 8 -10 18 -17 15 -13 16 -12 3 4 -13 16 -21 21 -21
13z"/>
<path d="M9946 1670 c5 -8 27 -42 50 -75 57 -82 128 -225 152 -310 66 -227 75
-528 22 -725 -27 -96 -164 -377 -224 -457 -26 -34 -61 -71 -79 -82 l-32 -21
27 0 c44 0 133 108 218 267 71 130 80 154 128 318 23 82 26 106 26 275 0 207
-15 302 -73 461 -31 83 -110 233 -148 280 -34 42 -75 84 -67 69z"/>
<path d="M10087 1613 c60 -93 126 -150 233 -200 175 -81 221 -108 262 -151 73
-79 102 -180 142 -488 39 -300 51 -337 108 -342 46 -4 87 30 150 125 142 212
230 474 227 678 l-1 70 -13 -97 c-14 -98 -41 -215 -71 -305 -62 -184 -231
-443 -290 -443 -27 0 -45 69 -70 259 -46 358 -84 483 -171 569 -53 52 -82 69
-200 118 -170 70 -236 118 -301 221 -15 24 -30 43 -35 43 -4 0 9 -26 30 -57z"/>
<path d="M9741 50 c0 -14 3 -32 9 -40 15 -24 18 -7 4 30 -11 31 -13 32 -13 10z"/>
</g>
</svg>
